<svg xmlns="http://www.w3.org/2000/svg" xmlns:xlink="http://www.w3.org/1999/xlink" width="400" zoomAndPan="magnify" viewBox="0 0 300 299.999988" height="400" preserveAspectRatio="xMidYMid meet" version="1.0"><defs><clipPath id="f183ff6a71"><path d="M 81.445312 109.605469 L 84.105469 109.605469 L 84.105469 112.265625 L 81.445312 112.265625 Z M 81.445312 109.605469 " clip-rule="nonzero"/></clipPath><clipPath id="107d6936de"><path d="M 82.773438 109.605469 C 82.039062 109.605469 81.445312 110.199219 81.445312 110.933594 C 81.445312 111.667969 82.039062 112.265625 82.773438 112.265625 C 83.507812 112.265625 84.105469 111.667969 84.105469 110.933594 C 84.105469 110.199219 83.507812 109.605469 82.773438 109.605469 Z M 82.773438 109.605469 " clip-rule="nonzero"/></clipPath><clipPath id="a5c0844ed6"><path d="M 0.445312 0.605469 L 3.105469 0.605469 L 3.105469 3.265625 L 0.445312 3.265625 Z M 0.445312 0.605469 " clip-rule="nonzero"/></clipPath><clipPath id="677fa8bf02"><path d="M 1.773438 0.605469 C 1.039062 0.605469 0.445312 1.199219 0.445312 1.933594 C 0.445312 2.667969 1.039062 3.265625 1.773438 3.265625 C 2.507812 3.265625 3.105469 2.667969 3.105469 1.933594 C 3.105469 1.199219 2.507812 0.605469 1.773438 0.605469 Z M 1.773438 0.605469 " clip-rule="nonzero"/></clipPath><clipPath id="54ded2fc62"><rect x="0" width="4" y="0" height="4"/></clipPath><clipPath id="1d2d985f98"><path d="M 48.226562 117.054688 L 50.886719 117.054688 L 50.886719 119.714844 L 48.226562 119.714844 Z M 48.226562 117.054688 " clip-rule="nonzero"/></clipPath><clipPath id="34ea794bff"><path d="M 49.554688 117.054688 C 48.820312 117.054688 48.226562 117.652344 48.226562 118.386719 C 48.226562 119.121094 48.820312 119.714844 49.554688 119.714844 C 50.289062 119.714844 50.886719 119.121094 50.886719 118.386719 C 50.886719 117.652344 50.289062 117.054688 49.554688 117.054688 Z M 49.554688 117.054688 " clip-rule="nonzero"/></clipPath><clipPath id="b4005b0c81"><path d="M 0.226562 0.0546875 L 2.886719 0.0546875 L 2.886719 2.714844 L 0.226562 2.714844 Z M 0.226562 0.0546875 " clip-rule="nonzero"/></clipPath><clipPath id="46f66f4ee5"><path d="M 1.554688 0.0546875 C 0.820312 0.0546875 0.226562 0.652344 0.226562 1.386719 C 0.226562 2.121094 0.820312 2.714844 1.554688 2.714844 C 2.289062 2.714844 2.886719 2.121094 2.886719 1.386719 C 2.886719 0.652344 2.289062 0.0546875 1.554688 0.0546875 Z M 1.554688 0.0546875 " clip-rule="nonzero"/></clipPath><clipPath id="1a7e8d282c"><rect x="0" width="3" y="0" height="3"/></clipPath><clipPath id="1c59393a19"><path d="M 68.753906 147.820312 L 71.414062 147.820312 L 71.414062 150.480469 L 68.753906 150.480469 Z M 68.753906 147.820312 " clip-rule="nonzero"/></clipPath><clipPath id="c6ad9e0163"><path d="M 70.082031 147.820312 C 69.347656 147.820312 68.753906 148.414062 68.753906 149.148438 C 68.753906 149.882812 69.347656 150.480469 70.082031 150.480469 C 70.816406 150.480469 71.414062 149.882812 71.414062 149.148438 C 71.414062 148.414062 70.816406 147.820312 70.082031 147.820312 Z M 70.082031 147.820312 " clip-rule="nonzero"/></clipPath><clipPath id="676e55b4b2"><path d="M 0.753906 0.820312 L 3.414062 0.820312 L 3.414062 3.480469 L 0.753906 3.480469 Z M 0.753906 0.820312 " clip-rule="nonzero"/></clipPath><clipPath id="f7315b7d1a"><path d="M 2.082031 0.820312 C 1.347656 0.820312 0.753906 1.414062 0.753906 2.148438 C 0.753906 2.882812 1.347656 3.480469 2.082031 3.480469 C 2.816406 3.480469 3.414062 2.882812 3.414062 2.148438 C 3.414062 1.414062 2.816406 0.820312 2.082031 0.820312 Z M 2.082031 0.820312 " clip-rule="nonzero"/></clipPath><clipPath id="ed08dc5b24"><rect x="0" width="4" y="0" height="4"/></clipPath><clipPath id="661a0da606"><path d="M 58.949219 189.207031 L 61.609375 189.207031 L 61.609375 191.867188 L 58.949219 191.867188 Z M 58.949219 189.207031 " clip-rule="nonzero"/></clipPath><clipPath id="793e8bdbcb"><path d="M 60.28125 189.207031 C 59.546875 189.207031 58.949219 189.804688 58.949219 190.539062 C 58.949219 191.273438 59.546875 191.867188 60.28125 191.867188 C 61.015625 191.867188 61.609375 191.273438 61.609375 190.539062 C 61.609375 189.804688 61.015625 189.207031 60.28125 189.207031 Z M 60.28125 189.207031 " clip-rule="nonzero"/></clipPath><clipPath id="f59f7d2834"><path d="M 0.949219 0.207031 L 3.609375 0.207031 L 3.609375 2.867188 L 0.949219 2.867188 Z M 0.949219 0.207031 " clip-rule="nonzero"/></clipPath><clipPath id="57d10c7fdc"><path d="M 2.28125 0.207031 C 1.546875 0.207031 0.949219 0.804688 0.949219 1.539062 C 0.949219 2.273438 1.546875 2.867188 2.28125 2.867188 C 3.015625 2.867188 3.609375 2.273438 3.609375 1.539062 C 3.609375 0.804688 3.015625 0.207031 2.28125 0.207031 Z M 2.28125 0.207031 " clip-rule="nonzero"/></clipPath><clipPath id="442e718a13"><rect x="0" width="4" y="0" height="3"/></clipPath><clipPath id="5c9bdb3af3"><path d="M 113.183594 207.816406 L 115.84375 207.816406 L 115.84375 210.476562 L 113.183594 210.476562 Z M 113.183594 207.816406 " clip-rule="nonzero"/></clipPath><clipPath id="b51d4c5cb5"><path d="M 114.515625 207.816406 C 113.78125 207.816406 113.183594 208.410156 113.183594 209.144531 C 113.183594 209.878906 113.78125 210.476562 114.515625 210.476562 C 115.25 210.476562 115.84375 209.878906 115.84375 209.144531 C 115.84375 208.410156 115.25 207.816406 114.515625 207.816406 Z M 114.515625 207.816406 " clip-rule="nonzero"/></clipPath><clipPath id="3429ff6e47"><path d="M 0.183594 0.816406 L 2.84375 0.816406 L 2.84375 3.476562 L 0.183594 3.476562 Z M 0.183594 0.816406 " clip-rule="nonzero"/></clipPath><clipPath id="b2a46b007c"><path d="M 1.515625 0.816406 C 0.78125 0.816406 0.183594 1.410156 0.183594 2.144531 C 0.183594 2.878906 0.78125 3.476562 1.515625 3.476562 C 2.25 3.476562 2.84375 2.878906 2.84375 2.144531 C 2.84375 1.410156 2.25 0.816406 1.515625 0.816406 Z M 1.515625 0.816406 " clip-rule="nonzero"/></clipPath><clipPath id="dcdb2eff0c"><rect x="0" width="3" y="0" height="4"/></clipPath><clipPath id="2580530e8e"><path d="M 190.734375 95.539062 L 193.394531 95.539062 L 193.394531 98.199219 L 190.734375 98.199219 Z M 190.734375 95.539062 " clip-rule="nonzero"/></clipPath><clipPath id="d0c280ed2f"><path d="M 192.066406 95.539062 C 191.332031 95.539062 190.734375 96.136719 190.734375 96.871094 C 190.734375 97.605469 191.332031 98.199219 192.066406 98.199219 C 192.800781 98.199219 193.394531 97.605469 193.394531 96.871094 C 193.394531 96.136719 192.800781 95.539062 192.066406 95.539062 Z M 192.066406 95.539062 " clip-rule="nonzero"/></clipPath><clipPath id="784779fd43"><path d="M 0.734375 0.539062 L 3.394531 0.539062 L 3.394531 3.199219 L 0.734375 3.199219 Z M 0.734375 0.539062 " clip-rule="nonzero"/></clipPath><clipPath id="a524a39277"><path d="M 2.066406 0.539062 C 1.332031 0.539062 0.734375 1.136719 0.734375 1.871094 C 0.734375 2.605469 1.332031 3.199219 2.066406 3.199219 C 2.800781 3.199219 3.394531 2.605469 3.394531 1.871094 C 3.394531 1.136719 2.800781 0.539062 2.066406 0.539062 Z M 2.066406 0.539062 " clip-rule="nonzero"/></clipPath><clipPath id="78f35e0df4"><rect x="0" width="4" y="0" height="4"/></clipPath><clipPath id="9f9c99a80f"><path d="M 243.792969 117.054688 L 246.453125 117.054688 L 246.453125 119.714844 L 243.792969 119.714844 Z M 243.792969 117.054688 " clip-rule="nonzero"/></clipPath><clipPath id="c69c020d06"><path d="M 245.125 117.054688 C 244.390625 117.054688 243.792969 117.652344 243.792969 118.386719 C 243.792969 119.121094 244.390625 119.714844 245.125 119.714844 C 245.859375 119.714844 246.453125 119.121094 246.453125 118.386719 C 246.453125 117.652344 245.859375 117.054688 245.125 117.054688 Z M 245.125 117.054688 " clip-rule="nonzero"/></clipPath><clipPath id="716d5436f0"><path d="M 0.792969 0.0546875 L 3.453125 0.0546875 L 3.453125 2.714844 L 0.792969 2.714844 Z M 0.792969 0.0546875 " clip-rule="nonzero"/></clipPath><clipPath id="4184c5c65c"><path d="M 2.125 0.0546875 C 1.390625 0.0546875 0.792969 0.652344 0.792969 1.386719 C 0.792969 2.121094 1.390625 2.714844 2.125 2.714844 C 2.859375 2.714844 3.453125 2.121094 3.453125 1.386719 C 3.453125 0.652344 2.859375 0.0546875 2.125 0.0546875 Z M 2.125 0.0546875 " clip-rule="nonzero"/></clipPath><clipPath id="fa7e27a09b"><rect x="0" width="4" y="0" height="3"/></clipPath><clipPath id="387bb450db"><path d="M 183.730469 64.652344 L 186.390625 64.652344 L 186.390625 67.3125 L 183.730469 67.3125 Z M 183.730469 64.652344 " clip-rule="nonzero"/></clipPath><clipPath id="ba09bed32c"><path d="M 185.058594 64.652344 C 184.324219 64.652344 183.730469 65.246094 183.730469 65.980469 C 183.730469 66.714844 184.324219 67.3125 185.058594 67.3125 C 185.792969 67.3125 186.390625 66.714844 186.390625 65.980469 C 186.390625 65.246094 185.792969 64.652344 185.058594 64.652344 Z M 185.058594 64.652344 " clip-rule="nonzero"/></clipPath><clipPath id="a3e915cd54"><path d="M 0.730469 0.652344 L 3.390625 0.652344 L 3.390625 3.3125 L 0.730469 3.3125 Z M 0.730469 0.652344 " clip-rule="nonzero"/></clipPath><clipPath id="2ad2d89f1d"><path d="M 2.058594 0.652344 C 1.324219 0.652344 0.730469 1.246094 0.730469 1.980469 C 0.730469 2.714844 1.324219 3.3125 2.058594 3.3125 C 2.792969 3.3125 3.390625 2.714844 3.390625 1.980469 C 3.390625 1.246094 2.792969 0.652344 2.058594 0.652344 Z M 2.058594 0.652344 " clip-rule="nonzero"/></clipPath><clipPath id="661e64bdf5"><rect x="0" width="4" y="0" height="4"/></clipPath><clipPath id="45a5e0a6d3"><path d="M 130.910156 106.945312 L 133.570312 106.945312 L 133.570312 109.605469 L 130.910156 109.605469 Z M 130.910156 106.945312 " clip-rule="nonzero"/></clipPath><clipPath id="3687882b38"><path d="M 132.242188 106.945312 C 131.507812 106.945312 130.910156 107.539062 130.910156 108.273438 C 130.910156 109.007812 131.507812 109.605469 132.242188 109.605469 C 132.976562 109.605469 133.570312 109.007812 133.570312 108.273438 C 133.570312 107.539062 132.976562 106.945312 132.242188 106.945312 Z M 132.242188 106.945312 " clip-rule="nonzero"/></clipPath><clipPath id="ad4043d2c5"><path d="M 0.910156 0.945312 L 3.570312 0.945312 L 3.570312 3.605469 L 0.910156 3.605469 Z M 0.910156 0.945312 " clip-rule="nonzero"/></clipPath><clipPath id="620459b528"><path d="M 2.242188 0.945312 C 1.507812 0.945312 0.910156 1.539062 0.910156 2.273438 C 0.910156 3.007812 1.507812 3.605469 2.242188 3.605469 C 2.976562 3.605469 3.570312 3.007812 3.570312 2.273438 C 3.570312 1.539062 2.976562 0.945312 2.242188 0.945312 Z M 2.242188 0.945312 " clip-rule="nonzero"/></clipPath><clipPath id="24c270fd8b"><rect x="0" width="4" y="0" height="4"/></clipPath><clipPath id="753c2d82d9"><path d="M 246.453125 186.546875 L 249.113281 186.546875 L 249.113281 189.207031 L 246.453125 189.207031 Z M 246.453125 186.546875 " clip-rule="nonzero"/></clipPath><clipPath id="a853802911"><path d="M 247.785156 186.546875 C 247.050781 186.546875 246.453125 187.144531 246.453125 187.878906 C 246.453125 188.613281 247.050781 189.207031 247.785156 189.207031 C 248.519531 189.207031 249.113281 188.613281 249.113281 187.878906 C 249.113281 187.144531 248.519531 186.546875 247.785156 186.546875 Z M 247.785156 186.546875 " clip-rule="nonzero"/></clipPath><clipPath id="100d5b607e"><path d="M 0.453125 0.546875 L 3.113281 0.546875 L 3.113281 3.207031 L 0.453125 3.207031 Z M 0.453125 0.546875 " clip-rule="nonzero"/></clipPath><clipPath id="ed7db84bc8"><path d="M 1.785156 0.546875 C 1.050781 0.546875 0.453125 1.144531 0.453125 1.878906 C 0.453125 2.613281 1.050781 3.207031 1.785156 3.207031 C 2.519531 3.207031 3.113281 2.613281 3.113281 1.878906 C 3.113281 1.144531 2.519531 0.546875 1.785156 0.546875 Z M 1.785156 0.546875 " clip-rule="nonzero"/></clipPath><clipPath id="681363b409"><rect x="0" width="4" y="0" height="4"/></clipPath><clipPath id="be4596b835"><path d="M 228.320312 155.539062 L 230.980469 155.539062 L 230.980469 158.199219 L 228.320312 158.199219 Z M 228.320312 155.539062 " clip-rule="nonzero"/></clipPath><clipPath id="0c07f2415e"><path d="M 229.652344 155.539062 C 228.917969 155.539062 228.320312 156.136719 228.320312 156.871094 C 228.320312 157.605469 228.917969 158.199219 229.652344 158.199219 C 230.386719 158.199219 230.980469 157.605469 230.980469 156.871094 C 230.980469 156.136719 230.386719 155.539062 229.652344 155.539062 Z M 229.652344 155.539062 " clip-rule="nonzero"/></clipPath><clipPath id="eee0007a06"><path d="M 0.320312 0.539062 L 2.980469 0.539062 L 2.980469 3.199219 L 0.320312 3.199219 Z M 0.320312 0.539062 " clip-rule="nonzero"/></clipPath><clipPath id="344ea03d43"><path d="M 1.652344 0.539062 C 0.917969 0.539062 0.320312 1.136719 0.320312 1.871094 C 0.320312 2.605469 0.917969 3.199219 1.652344 3.199219 C 2.386719 3.199219 2.980469 2.605469 2.980469 1.871094 C 2.980469 1.136719 2.386719 0.539062 1.652344 0.539062 Z M 1.652344 0.539062 " clip-rule="nonzero"/></clipPath><clipPath id="f091896acf"><rect x="0" width="3" y="0" height="4"/></clipPath><clipPath id="c3aca7f2f8"><path d="M 144.230469 61.992188 L 146.890625 61.992188 L 146.890625 64.652344 L 144.230469 64.652344 Z M 144.230469 61.992188 " clip-rule="nonzero"/></clipPath><clipPath id="a60f47d83f"><path d="M 145.5625 61.992188 C 144.828125 61.992188 144.230469 62.585938 144.230469 63.320312 C 144.230469 64.054688 144.828125 64.652344 145.5625 64.652344 C 146.296875 64.652344 146.890625 64.054688 146.890625 63.320312 C 146.890625 62.585938 146.296875 61.992188 145.5625 61.992188 Z M 145.5625 61.992188 " clip-rule="nonzero"/></clipPath><clipPath id="394461572c"><path d="M 0.230469 0.992188 L 2.890625 0.992188 L 2.890625 3.652344 L 0.230469 3.652344 Z M 0.230469 0.992188 " clip-rule="nonzero"/></clipPath><clipPath id="86d0caf9b8"><path d="M 1.5625 0.992188 C 0.828125 0.992188 0.230469 1.585938 0.230469 2.320312 C 0.230469 3.054688 0.828125 3.652344 1.5625 3.652344 C 2.296875 3.652344 2.890625 3.054688 2.890625 2.320312 C 2.890625 1.585938 2.296875 0.992188 1.5625 0.992188 Z M 1.5625 0.992188 " clip-rule="nonzero"/></clipPath><clipPath id="e4f899f40d"><rect x="0" width="3" y="0" height="4"/></clipPath><clipPath id="fce16ce496"><path d="M 202.285156 210.476562 L 204.945312 210.476562 L 204.945312 213.136719 L 202.285156 213.136719 Z M 202.285156 210.476562 " clip-rule="nonzero"/></clipPath><clipPath id="326ea1578f"><path d="M 203.617188 210.476562 C 202.882812 210.476562 202.285156 211.070312 202.285156 211.804688 C 202.285156 212.539062 202.882812 213.136719 203.617188 213.136719 C 204.351562 213.136719 204.945312 212.539062 204.945312 211.804688 C 204.945312 211.070312 204.351562 210.476562 203.617188 210.476562 Z M 203.617188 210.476562 " clip-rule="nonzero"/></clipPath><clipPath id="c781252d20"><path d="M 0.285156 0.476562 L 2.945312 0.476562 L 2.945312 3.136719 L 0.285156 3.136719 Z M 0.285156 0.476562 " clip-rule="nonzero"/></clipPath><clipPath id="a3bd6ea168"><path d="M 1.617188 0.476562 C 0.882812 0.476562 0.285156 1.070312 0.285156 1.804688 C 0.285156 2.539062 0.882812 3.136719 1.617188 3.136719 C 2.351562 3.136719 2.945312 2.539062 2.945312 1.804688 C 2.945312 1.070312 2.351562 0.476562 1.617188 0.476562 Z M 1.617188 0.476562 " clip-rule="nonzero"/></clipPath><clipPath id="c0157aebb6"><rect x="0" width="3" y="0" height="4"/></clipPath><clipPath id="9daea9b9a2"><path d="M 146.890625 240.667969 L 149.550781 240.667969 L 149.550781 243.328125 L 146.890625 243.328125 Z M 146.890625 240.667969 " clip-rule="nonzero"/></clipPath><clipPath id="836c71a67e"><path d="M 148.222656 240.667969 C 147.488281 240.667969 146.890625 241.265625 146.890625 242 C 146.890625 242.734375 147.488281 243.328125 148.222656 243.328125 C 148.957031 243.328125 149.550781 242.734375 149.550781 242 C 149.550781 241.265625 148.957031 240.667969 148.222656 240.667969 Z M 148.222656 240.667969 " clip-rule="nonzero"/></clipPath><clipPath id="4b6bc4c4a8"><path d="M 0.890625 0.667969 L 3.550781 0.667969 L 3.550781 3.328125 L 0.890625 3.328125 Z M 0.890625 0.667969 " clip-rule="nonzero"/></clipPath><clipPath id="67a93c24de"><path d="M 2.222656 0.667969 C 1.488281 0.667969 0.890625 1.265625 0.890625 2 C 0.890625 2.734375 1.488281 3.328125 2.222656 3.328125 C 2.957031 3.328125 3.550781 2.734375 3.550781 2 C 3.550781 1.265625 2.957031 0.667969 2.222656 0.667969 Z M 2.222656 0.667969 " clip-rule="nonzero"/></clipPath><clipPath id="ca7abe8765"><rect x="0" width="4" y="0" height="4"/></clipPath><clipPath id="120920d147"><path d="M 249.113281 56.671875 L 251.773438 56.671875 L 251.773438 59.332031 L 249.113281 59.332031 Z M 249.113281 56.671875 " clip-rule="nonzero"/></clipPath><clipPath id="66156e986c"><path d="M 250.445312 56.671875 C 249.710938 56.671875 249.113281 57.265625 249.113281 58 C 249.113281 58.734375 249.710938 59.332031 250.445312 59.332031 C 251.179688 59.332031 251.773438 58.734375 251.773438 58 C 251.773438 57.265625 251.179688 56.671875 250.445312 56.671875 Z M 250.445312 56.671875 " clip-rule="nonzero"/></clipPath><clipPath id="43f7dafa40"><path d="M 0.113281 0.671875 L 2.773438 0.671875 L 2.773438 3.332031 L 0.113281 3.332031 Z M 0.113281 0.671875 " clip-rule="nonzero"/></clipPath><clipPath id="4c39d6c6e9"><path d="M 1.445312 0.671875 C 0.710938 0.671875 0.113281 1.265625 0.113281 2 C 0.113281 2.734375 0.710938 3.332031 1.445312 3.332031 C 2.179688 3.332031 2.773438 2.734375 2.773438 2 C 2.773438 1.265625 2.179688 0.671875 1.445312 0.671875 Z M 1.445312 0.671875 " clip-rule="nonzero"/></clipPath><clipPath id="e47e9fa52a"><rect x="0" width="3" y="0" height="4"/></clipPath><clipPath id="e38183e4d2"><path d="M 251.773438 225.316406 L 254.433594 225.316406 L 254.433594 227.976562 L 251.773438 227.976562 Z M 251.773438 225.316406 " clip-rule="nonzero"/></clipPath><clipPath id="9785e1c66e"><path d="M 253.105469 225.316406 C 252.371094 225.316406 251.773438 225.914062 251.773438 226.648438 C 251.773438 227.382812 252.371094 227.976562 253.105469 227.976562 C 253.839844 227.976562 254.433594 227.382812 254.433594 226.648438 C 254.433594 225.914062 253.839844 225.316406 253.105469 225.316406 Z M 253.105469 225.316406 " clip-rule="nonzero"/></clipPath><clipPath id="3f1264dc3d"><path d="M 0.773438 0.316406 L 3.433594 0.316406 L 3.433594 2.976562 L 0.773438 2.976562 Z M 0.773438 0.316406 " clip-rule="nonzero"/></clipPath><clipPath id="2278d42e35"><path d="M 2.105469 0.316406 C 1.371094 0.316406 0.773438 0.914062 0.773438 1.648438 C 0.773438 2.382812 1.371094 2.976562 2.105469 2.976562 C 2.839844 2.976562 3.433594 2.382812 3.433594 1.648438 C 3.433594 0.914062 2.839844 0.316406 2.105469 0.316406 Z M 2.105469 0.316406 " clip-rule="nonzero"/></clipPath><clipPath id="1599189d5b"><rect x="0" width="4" y="0" height="3"/></clipPath></defs><rect x="-30" width="360" fill="#ffffff" y="-29.999999" height="359.999986" fill-opacity="1"/><rect x="-30" width="360" fill="#201e21" y="-29.999999" height="359.999986" fill-opacity="1"/><path fill="#878787" d="M 193.542969 173.125 C 193.542969 173.125 201.175781 166.238281 197.0625 158.078125 C 192.945312 149.917969 187.492188 126.792969 168.675781 134.488281 C 149.859375 142.183594 187.003906 174.304688 193.542969 173.125 Z M 193.542969 173.125 " fill-opacity="1" fill-rule="nonzero"/><path fill="#201e21" d="M 193.199219 173.390625 C 187.746094 173.390625 167.277344 157.144531 163.683594 144.796875 C 162.234375 139.816406 163.929688 136.171875 168.585938 134.269531 C 175.6875 131.363281 181.523438 132.453125 186.429688 137.601562 C 190.546875 141.921875 193.128906 148.195312 195.207031 153.238281 C 195.972656 155.097656 196.632812 156.703125 197.273438 157.96875 C 201.421875 166.199219 193.78125 173.230469 193.703125 173.300781 L 193.652344 173.347656 L 193.585938 173.359375 C 193.46875 173.378906 193.339844 173.390625 193.199219 173.390625 Z M 175.808594 133.175781 C 173.699219 133.175781 171.363281 133.644531 168.765625 134.707031 C 164.304688 136.53125 162.746094 139.882812 164.140625 144.664062 C 167.648438 156.710938 188.726562 173.550781 193.433594 172.902344 C 194.082031 172.285156 200.660156 165.738281 196.851562 158.183594 C 196.203125 156.898438 195.539062 155.289062 194.769531 153.417969 C 191.332031 145.078125 186.429688 133.175781 175.8125 133.175781 Z M 175.808594 133.175781 " fill-opacity="1" fill-rule="nonzero"/><path fill="#e5e3e3" d="M 172.046875 169.785156 C 172.046875 169.785156 161.140625 170.074219 156.667969 182.546875 C 152.199219 195.015625 161.828125 204.953125 161.828125 204.953125 C 161.828125 204.953125 157.457031 214.300781 163.128906 216.25 C 168.804688 218.195312 175.964844 206.980469 176.351562 203.300781 C 176.734375 199.621094 168.679688 195.078125 178.886719 181.582031 C 189.089844 168.089844 172.046875 169.785156 172.046875 169.785156 Z M 172.046875 169.785156 " fill-opacity="1" fill-rule="nonzero"/><path fill="#201e21" d="M 164.5 216.714844 C 164 216.714844 163.519531 216.632812 163.054688 216.476562 C 161.8125 216.046875 160.933594 215.246094 160.441406 214.09375 C 159.074219 210.871094 161.132812 205.925781 161.546875 204.996094 C 160.484375 203.820312 152.242188 194.199219 156.445312 182.464844 C 158.78125 175.949219 162.890625 172.785156 165.929688 171.277344 C 169.164062 169.671875 171.828125 169.554688 172.03125 169.546875 C 172.453125 169.507812 179.855469 168.84375 181.878906 172.457031 C 183.066406 174.574219 182.125 177.695312 179.074219 181.726562 C 171.644531 191.554688 174.023438 196.617188 175.601562 199.964844 C 176.1875 201.214844 176.695312 202.289062 176.585938 203.324219 C 176.285156 206.1875 172.375 212.773438 168.121094 215.488281 C 166.84375 216.304688 165.632812 216.714844 164.5 216.714844 Z M 173.722656 169.957031 C 172.753906 169.957031 172.09375 170.019531 172.070312 170.019531 L 172.054688 170.019531 C 171.945312 170.023438 161.253906 170.460938 156.894531 182.625 C 152.527344 194.808594 161.90625 204.6875 162 204.785156 L 162.113281 204.902344 L 162.042969 205.050781 C 162.019531 205.105469 159.480469 210.613281 160.878906 213.90625 C 161.316406 214.929688 162.097656 215.644531 163.207031 216.023438 C 164.585938 216.496094 166.152344 216.183594 167.867188 215.085938 C 171.945312 212.484375 175.832031 205.980469 176.113281 203.273438 C 176.207031 202.371094 175.75 201.398438 175.171875 200.164062 C 173.546875 196.710938 171.09375 191.492188 178.695312 181.441406 C 181.621094 177.570312 182.554688 174.625 181.464844 172.6875 C 180.132812 170.308594 176.042969 169.953125 173.722656 169.953125 Z M 173.722656 169.957031 " fill-opacity="1" fill-rule="nonzero"/><path fill="#e5e3e3" d="M 151.523438 141.9375 L 189.632812 165.839844 C 189.632812 165.839844 192.390625 169.84375 201.007812 172.757812 C 209.621094 175.667969 213.527344 180.730469 211.390625 186.597656 C 209.257812 192.460938 202.175781 191.734375 199.300781 189.984375 C 199.300781 189.984375 183.972656 186.035156 178.171875 182.324219 C 178.171875 182.324219 167.921875 193.285156 153.128906 183.746094 L 138.335938 174.210938 C 138.335938 174.210938 122.148438 182.273438 112.601562 177.359375 C 103.054688 172.445312 99.222656 176.386719 96.933594 169.257812 C 94.640625 162.132812 106.324219 161.183594 106.324219 161.183594 C 106.324219 161.183594 101.695312 158.1875 105.453125 157.609375 C 109.207031 157.027344 111.910156 161.714844 119.015625 162.097656 C 126.125 162.484375 146.980469 155.289062 151.519531 141.9375 Z M 151.523438 141.9375 " fill-opacity="1" fill-rule="nonzero"/><path fill="#201e21" d="M 204.257812 191.476562 C 202.320312 191.476562 200.445312 190.949219 199.207031 190.207031 C 198.402344 189.996094 183.960938 186.203125 178.207031 182.628906 C 177.613281 183.21875 175.171875 185.46875 171.277344 186.835938 C 167.203125 188.265625 160.722656 188.925781 153 183.945312 L 138.320312 174.480469 C 136.796875 175.210938 121.597656 182.253906 112.492188 177.570312 C 108.628906 175.582031 105.753906 175.0625 103.441406 174.644531 C 100.113281 174.046875 98.109375 173.683594 96.707031 169.332031 C 96.175781 167.683594 96.328125 166.210938 97.164062 164.964844 C 99.0625 162.121094 103.917969 161.246094 105.671875 161.015625 C 104.890625 160.433594 103.570312 159.300781 103.765625 158.390625 C 103.878906 157.859375 104.417969 157.527344 105.417969 157.375 C 107.238281 157.09375 108.820312 157.992188 110.648438 159.03125 C 112.707031 160.203125 115.269531 161.660156 119.03125 161.863281 C 126.449219 162.261719 146.851562 154.929688 151.296875 141.859375 L 151.394531 141.574219 L 189.828125 165.703125 C 189.855469 165.742188 192.65625 169.683594 201.082031 172.53125 C 206.328125 174.304688 209.898438 176.898438 211.398438 180.023438 C 212.394531 182.097656 212.46875 184.335938 211.613281 186.679688 C 210.851562 188.777344 209.363281 190.265625 207.320312 190.984375 C 206.335938 191.328125 205.285156 191.480469 204.253906 191.480469 Z M 178.132812 182.019531 L 178.300781 182.125 C 184.003906 185.769531 199.207031 189.714844 199.359375 189.753906 L 199.425781 189.78125 C 201.175781 190.847656 204.484375 191.476562 207.164062 190.535156 C 209.097656 189.855469 210.445312 188.503906 211.167969 186.515625 C 211.976562 184.296875 211.910156 182.179688 210.972656 180.230469 C 209.527344 177.21875 206.054688 174.714844 200.929688 172.980469 C 192.707031 170.199219 189.800781 166.472656 189.46875 166.011719 L 151.648438 142.292969 C 146.9375 155.394531 126.480469 162.738281 119.007812 162.335938 C 115.132812 162.125 112.515625 160.640625 110.414062 159.445312 C 108.589844 158.40625 107.144531 157.585938 105.492188 157.84375 C 104.960938 157.921875 104.3125 158.101562 104.230469 158.488281 C 104.085938 159.164062 105.519531 160.375 106.453125 160.980469 L 107.039062 161.359375 L 106.34375 161.417969 C 106.277344 161.421875 99.71875 161.996094 97.558594 165.226562 C 96.808594 166.347656 96.675781 167.679688 97.160156 169.183594 C 98.472656 173.265625 100.269531 173.589844 103.527344 174.175781 C 105.871094 174.597656 108.785156 175.125 112.710938 177.144531 C 122.042969 181.949219 138.070312 174.074219 138.230469 173.996094 L 138.351562 173.9375 L 153.261719 183.546875 C 160.8125 188.414062 167.132812 187.78125 171.101562 186.394531 C 175.414062 184.886719 177.972656 182.1875 178 182.164062 L 178.136719 182.019531 Z M 178.132812 182.019531 " fill-opacity="1" fill-rule="nonzero"/><path fill="#e5e3e3" d="M 172.699219 167.101562 C 172.699219 167.101562 177 170.839844 176.320312 174.636719 C 175.640625 178.4375 160.066406 186.011719 153.339844 187.558594 C 146.617188 189.105469 139.761719 180.417969 138.421875 177.433594 C 137.085938 174.453125 138.566406 169.960938 143.179688 168.570312 C 147.796875 167.175781 165.015625 157.910156 172.703125 167.101562 Z M 172.699219 167.101562 " fill-opacity="1" fill-rule="nonzero"/><path fill="#201e21" d="M 151.746094 187.976562 C 145.632812 187.976562 139.621094 180.679688 138.203125 177.53125 C 137.507812 175.984375 137.554688 174.050781 138.328125 172.359375 C 139.207031 170.433594 140.90625 169.003906 143.109375 168.339844 C 143.847656 168.117188 144.898438 167.699219 146.226562 167.164062 C 153.25 164.351562 166.316406 159.121094 172.871094 166.933594 C 173.191406 167.21875 177.234375 170.867188 176.550781 174.679688 C 175.84375 178.636719 160.039062 186.261719 153.390625 187.789062 C 152.84375 187.914062 152.292969 187.976562 151.746094 187.976562 Z M 162.988281 163.304688 C 157.144531 163.304688 150.652344 165.90625 146.40625 167.605469 C 145.0625 168.144531 144.003906 168.566406 143.246094 168.796875 C 141.175781 169.421875 139.578125 170.757812 138.757812 172.558594 C 138.042969 174.125 138 175.914062 138.636719 177.335938 C 140.132812 180.671875 146.90625 188.796875 153.285156 187.328125 C 160.359375 185.699219 175.457031 178.109375 176.085938 174.597656 C 176.730469 170.976562 172.585938 167.316406 172.542969 167.28125 L 172.515625 167.253906 C 170.074219 164.332031 166.660156 163.304688 162.988281 163.304688 Z M 162.988281 163.304688 " fill-opacity="1" fill-rule="nonzero"/><path fill="#e5e3e3" d="M 139.976562 175.703125 C 139.976562 175.703125 155.578125 166.628906 162.71875 168.3125 C 169.859375 169.996094 172.902344 175.789062 172.902344 175.789062 " fill-opacity="1" fill-rule="nonzero"/><path fill="#201e21" d="M 140.097656 175.910156 L 139.855469 175.5 C 139.898438 175.476562 143.824219 173.199219 148.578125 171.160156 C 154.984375 168.40625 159.761719 167.371094 162.773438 168.082031 C 169.933594 169.769531 173.082031 175.621094 173.113281 175.679688 L 172.695312 175.898438 C 172.664062 175.839844 169.609375 170.179688 162.664062 168.542969 C 155.699219 166.902344 140.253906 175.820312 140.097656 175.910156 Z M 140.097656 175.910156 " fill-opacity="1" fill-rule="nonzero"/><path fill="#242528" d="M 144.613281 175.726562 C 144.613281 175.726562 141.664062 176.988281 141.523438 177.5 C 141.378906 178.015625 141.8125 179.125 143.03125 178.730469 C 144.25 178.339844 150.484375 175.859375 152.75 174.601562 C 155.015625 173.339844 154.253906 171.921875 153.28125 172.148438 C 152.304688 172.375 144.613281 175.726562 144.613281 175.726562 Z M 144.613281 175.726562 " fill-opacity="1" fill-rule="nonzero"/><path fill="#242528" d="M 146.839844 178.773438 C 146.839844 178.773438 144.019531 180.007812 143.894531 180.515625 C 143.765625 181.027344 144.210938 182.128906 145.382812 181.746094 C 146.550781 181.367188 152.527344 178.949219 154.6875 177.710938 C 156.847656 176.476562 156.074219 175.066406 155.136719 175.285156 C 154.199219 175.503906 146.839844 178.773438 146.839844 178.773438 Z M 146.839844 178.773438 " fill-opacity="1" fill-rule="nonzero"/><path fill="#242528" d="M 149.542969 181.429688 C 149.542969 181.429688 146.878906 182.53125 146.761719 183.03125 C 146.648438 183.527344 147.078125 184.636719 148.183594 184.308594 C 149.289062 183.980469 154.9375 181.84375 156.976562 180.710938 C 159.015625 179.582031 158.277344 178.152344 157.386719 178.332031 C 156.5 178.507812 149.542969 181.433594 149.542969 181.433594 Z M 149.542969 181.429688 " fill-opacity="1" fill-rule="nonzero"/><path fill="#242528" d="M 153.214844 183.917969 C 153.214844 183.917969 150.941406 184.847656 150.867188 185.328125 C 150.796875 185.808594 151.242188 186.910156 152.195312 186.648438 C 153.148438 186.386719 157.984375 184.597656 159.707031 183.601562 C 161.433594 182.609375 160.695312 181.179688 159.925781 181.304688 C 159.15625 181.429688 153.214844 183.917969 153.214844 183.917969 Z M 153.214844 183.917969 " fill-opacity="1" fill-rule="nonzero"/><path fill="#242528" d="M 163.027344 170.652344 C 163.859375 171.894531 163.261719 173.585938 161.691406 174.433594 C 160.121094 175.285156 158.171875 174.964844 157.335938 173.726562 C 156.503906 172.484375 157.101562 170.792969 158.675781 169.945312 C 160.246094 169.09375 162.195312 169.414062 163.027344 170.652344 Z M 163.027344 170.652344 " fill-opacity="1" fill-rule="nonzero"/><path fill="#242528" d="M 167.046875 176.632812 C 167.878906 177.871094 167.28125 179.5625 165.707031 180.414062 C 164.136719 181.261719 162.1875 180.945312 161.355469 179.703125 C 160.523438 178.464844 161.121094 176.769531 162.691406 175.921875 C 164.261719 175.074219 166.210938 175.390625 167.046875 176.632812 Z M 167.046875 176.632812 " fill-opacity="1" fill-rule="nonzero"/><path fill="#242528" d="M 168.875 166.796875 C 168.875 166.796875 174.492188 159.660156 172.96875 156.847656 C 172.96875 156.847656 174.964844 157.390625 176.246094 158.367188 C 176.246094 158.367188 179.894531 164.726562 172.851562 170.5625 C 172.851562 170.5625 169.339844 172.363281 168.875 166.796875 Z M 168.875 166.796875 " fill-opacity="1" fill-rule="nonzero"/><path fill="#e5e3e3" d="M 187.0625 184.832031 C 187.0625 184.832031 194.863281 179.613281 195.046875 171.707031 " fill-opacity="1" fill-rule="nonzero"/><path fill="#201e21" d="M 187.195312 185.027344 L 186.933594 184.632812 C 187.007812 184.582031 194.632812 179.386719 194.808594 171.703125 L 195.285156 171.714844 C 195.101562 179.648438 187.273438 184.976562 187.195312 185.027344 Z M 187.195312 185.027344 " fill-opacity="1" fill-rule="nonzero"/><path fill="#e5e3e3" d="M 173.460938 158.058594 C 173.460938 158.058594 190.535156 158.320312 194.015625 147.59375 C 197.496094 136.867188 195.671875 129.554688 195.671875 129.554688 C 195.671875 129.554688 195.980469 117.320312 189.179688 113.96875 C 182.375 110.617188 181.785156 124.242188 181.785156 124.242188 C 181.785156 124.242188 177.804688 120.007812 177.640625 123.515625 C 177.476562 127.027344 182.257812 130.941406 182.257812 130.941406 C 182.257812 130.941406 180.640625 140.8125 175.191406 141.9375 C 169.742188 143.058594 154.230469 144.980469 154.230469 144.980469 L 158.441406 154.738281 Z M 173.460938 158.058594 " fill-opacity="1" fill-rule="nonzero"/><path fill="#201e21" d="M 173.523438 158.292969 C 173.484375 158.292969 173.464844 158.292969 173.457031 158.292969 L 173.410156 158.289062 L 158.269531 154.941406 L 153.886719 144.785156 L 154.203125 144.746094 C 154.355469 144.726562 169.765625 142.808594 175.144531 141.703125 C 180.035156 140.695312 181.78125 132.203125 182 131.035156 C 181.265625 130.414062 177.246094 126.839844 177.402344 123.507812 C 177.445312 122.652344 177.707031 122.132812 178.191406 121.953125 C 179.207031 121.578125 180.835938 122.980469 181.582031 123.699219 C 181.726562 121.796875 182.425781 115.460938 185.441406 113.671875 C 186.550781 113.019531 187.839844 113.046875 189.285156 113.757812 C 192.132812 115.160156 194.179688 118.34375 195.210938 122.96875 C 195.9375 126.246094 195.917969 129.195312 195.910156 129.53125 C 196.035156 130.074219 197.585938 137.355469 194.242188 147.667969 C 190.859375 158.089844 174.703125 158.296875 173.523438 158.296875 Z M 173.488281 157.820312 C 174.214844 157.820312 190.464844 157.773438 193.789062 147.519531 C 197.207031 136.992188 195.460938 129.683594 195.445312 129.613281 L 195.4375 129.582031 L 195.4375 129.550781 C 195.441406 129.429688 195.660156 117.425781 189.074219 114.179688 C 187.785156 113.546875 186.644531 113.511719 185.6875 114.082031 C 182.417969 116.015625 182.027344 124.171875 182.023438 124.253906 L 182 124.816406 L 181.613281 124.40625 C 180.746094 123.484375 179.097656 122.125 178.359375 122.398438 C 178.070312 122.503906 177.910156 122.886719 177.878906 123.527344 C 177.722656 126.878906 182.359375 130.71875 182.40625 130.757812 L 182.515625 130.847656 L 182.492188 130.980469 C 182.488281 131.007812 182.070312 133.507812 180.988281 136.109375 C 179.535156 139.597656 177.550781 141.695312 175.238281 142.167969 C 170.273438 143.191406 156.808594 144.898438 154.574219 145.179688 L 158.609375 154.53125 Z M 173.488281 157.820312 " fill-opacity="1" fill-rule="nonzero"/><path fill="#e5e3e3" d="M 184.433594 135.359375 C 184.433594 135.359375 189.242188 138.351562 194.964844 136.136719 " fill-opacity="1" fill-rule="nonzero"/><path fill="#201e21" d="M 190.632812 137.183594 C 186.972656 137.183594 184.34375 135.582031 184.308594 135.558594 L 184.558594 135.15625 C 184.605469 135.1875 189.339844 138.0625 194.882812 135.917969 L 195.054688 136.359375 C 193.492188 136.964844 191.992188 137.183594 190.632812 137.183594 Z M 190.632812 137.183594 " fill-opacity="1" fill-rule="nonzero"/><path fill="#e5e3e3" d="M 167.164062 121.921875 C 172.082031 134.277344 168.511719 147.921875 159.230469 156.382812 C 158.613281 156.949219 157.96875 157.488281 157.304688 158.003906 C 155.0625 159.734375 152.550781 161.183594 149.789062 162.28125 C 133.847656 168.628906 115.78125 160.847656 109.433594 144.90625 C 105.789062 135.757812 106.796875 125.90625 111.335938 117.96875 C 112.253906 116.363281 113.320312 114.835938 114.519531 113.410156 C 117.707031 109.605469 121.863281 106.515625 126.800781 104.546875 C 142.742188 98.199219 160.816406 105.980469 167.164062 121.921875 Z M 167.164062 121.921875 " fill-opacity="1" fill-rule="nonzero"/><path fill="#201e21" d="M 138.292969 164.742188 C 134.09375 164.742188 129.894531 163.882812 125.917969 162.171875 C 118.238281 158.863281 112.304688 152.765625 109.210938 144.996094 C 105.664062 136.082031 106.363281 126.1875 111.132812 117.851562 C 112.054688 116.234375 113.132812 114.6875 114.335938 113.257812 C 117.632812 109.328125 121.910156 106.238281 126.714844 104.328125 C 134.484375 101.234375 142.992188 101.351562 150.675781 104.65625 C 158.355469 107.964844 164.292969 114.0625 167.382812 121.832031 C 172.179688 133.875 168.96875 147.828125 159.394531 156.558594 C 158.773438 157.125 158.121094 157.671875 157.449219 158.191406 C 155.148438 159.96875 152.601562 161.417969 149.878906 162.503906 C 146.128906 163.996094 142.210938 164.738281 138.292969 164.738281 Z M 138.300781 102.5625 C 134.441406 102.5625 130.582031 103.296875 126.890625 104.769531 C 122.160156 106.652344 117.945312 109.691406 114.699219 113.5625 C 113.511719 114.972656 112.449219 116.496094 111.542969 118.089844 C 106.84375 126.296875 106.15625 136.039062 109.652344 144.820312 C 112.699219 152.472656 118.542969 158.480469 126.105469 161.734375 C 133.671875 164.992188 142.050781 165.109375 149.699219 162.0625 C 152.382812 160.996094 154.890625 159.566406 157.15625 157.816406 C 157.816406 157.308594 158.460938 156.765625 159.070312 156.207031 C 168.5 147.613281 171.664062 133.867188 166.941406 122.011719 C 163.894531 114.359375 158.050781 108.351562 150.484375 105.09375 C 146.570312 103.410156 142.4375 102.566406 138.296875 102.566406 Z M 138.300781 102.5625 " fill-opacity="1" fill-rule="nonzero"/><path fill="#201e21" d="M 138.292969 164.742188 C 134.09375 164.742188 129.894531 163.882812 125.917969 162.171875 C 118.238281 158.863281 112.304688 152.765625 109.210938 144.996094 C 105.664062 136.082031 106.363281 126.1875 111.132812 117.851562 C 112.054688 116.234375 113.132812 114.6875 114.335938 113.257812 L 114.371094 113.222656 C 116.671875 111.441406 119.222656 109.988281 121.957031 108.898438 C 129.726562 105.804688 138.234375 105.921875 145.914062 109.230469 C 153.597656 112.535156 159.53125 118.632812 162.621094 126.402344 C 165.890625 134.609375 165.527344 143.871094 161.625 151.8125 C 160.503906 154.09375 159.113281 156.230469 157.484375 158.15625 L 157.449219 158.191406 C 155.148438 159.96875 152.601562 161.417969 149.878906 162.503906 C 146.128906 163.996094 142.210938 164.738281 138.292969 164.738281 Z M 114.683594 113.582031 C 113.503906 114.988281 112.449219 116.503906 111.542969 118.089844 C 106.847656 126.296875 106.15625 136.039062 109.652344 144.820312 C 112.699219 152.472656 118.542969 158.480469 126.105469 161.734375 C 133.671875 164.992188 142.050781 165.109375 149.703125 162.0625 C 152.375 161 154.878906 159.574219 157.136719 157.832031 C 158.734375 155.9375 160.097656 153.84375 161.199219 151.601562 C 165.039062 143.785156 165.398438 134.664062 162.179688 126.578125 C 159.132812 118.929688 153.289062 112.921875 145.726562 109.667969 C 138.164062 106.410156 129.785156 106.296875 122.132812 109.339844 C 119.445312 110.410156 116.941406 111.839844 114.679688 113.582031 Z M 114.683594 113.582031 " fill-opacity="1" fill-rule="nonzero"/><path fill="#e5e3e3" d="M 163.800781 119.566406 C 163.800781 119.566406 170.628906 117.332031 172.300781 128.402344 C 173.976562 139.46875 167.671875 139.730469 167.671875 139.730469 C 167.671875 139.730469 161.957031 129.464844 163.800781 119.566406 Z M 163.800781 119.566406 " fill-opacity="1" fill-rule="nonzero"/><path fill="#201e21" d="M 167.535156 139.972656 L 167.464844 139.84375 C 167.40625 139.742188 161.726562 129.390625 163.570312 119.523438 L 163.59375 119.386719 L 163.730469 119.339844 C 163.820312 119.3125 166.015625 118.617188 168.269531 120.003906 C 170.46875 121.359375 171.902344 124.171875 172.539062 128.363281 C 173.207031 132.800781 172.707031 136.074219 171.042969 138.089844 C 169.574219 139.867188 167.757812 139.964844 167.679688 139.964844 Z M 164.007812 119.757812 C 162.390625 128.796875 167.148438 138.230469 167.804688 139.476562 C 168.242188 139.414062 169.582031 139.121094 170.683594 137.777344 C 172.25 135.867188 172.714844 132.726562 172.066406 128.4375 C 171.457031 124.394531 170.097656 121.695312 168.027344 120.414062 C 166.265625 119.324219 164.5 119.636719 164.007812 119.757812 Z M 164.007812 119.757812 " fill-opacity="1" fill-rule="nonzero"/><path fill="#e5e3e3" d="M 108.207031 137.476562 C 108.207031 137.476562 104.738281 141.046875 107.789062 147.699219 C 110.84375 154.351562 115.808594 157.457031 118.675781 158.046875 C 121.539062 158.632812 108.207031 137.476562 108.207031 137.476562 Z M 108.207031 137.476562 " fill-opacity="1" fill-rule="nonzero"/><path fill="#201e21" d="M 118.785156 158.296875 C 118.734375 158.296875 118.683594 158.289062 118.628906 158.277344 C 116.066406 157.753906 110.859375 154.957031 107.574219 147.796875 C 104.488281 141.074219 108.003906 137.347656 108.039062 137.308594 L 108.25 137.09375 L 108.410156 137.347656 C 110.410156 140.523438 120.335938 156.449219 119.203125 158.085938 C 119.144531 158.171875 119.019531 158.296875 118.785156 158.296875 Z M 108.183594 137.878906 C 107.90625 138.242188 107.398438 139.023438 107.074219 140.183594 C 106.648438 141.714844 106.464844 144.242188 108.003906 147.597656 C 110.796875 153.679688 115.515625 157.15625 118.722656 157.8125 C 118.789062 157.828125 118.8125 157.816406 118.8125 157.816406 C 119.542969 157.078125 114.011719 147.152344 108.183594 137.878906 Z M 108.183594 137.878906 " fill-opacity="1" fill-rule="nonzero"/><path fill="#242528" d="M 161.132812 129.445312 C 164.089844 136.875 163.980469 144.761719 161.410156 151.707031 C 160.8125 153.324219 160.082031 154.886719 159.230469 156.382812 C 158.613281 156.949219 157.96875 157.488281 157.300781 158.003906 C 155.0625 159.734375 152.550781 161.183594 149.789062 162.28125 C 133.847656 168.628906 115.777344 160.847656 109.433594 144.90625 C 105.789062 135.757812 106.796875 125.90625 111.335938 117.96875 C 114.023438 115.515625 117.191406 113.5 120.769531 112.074219 C 136.710938 105.726562 154.785156 113.507812 161.132812 129.445312 Z M 161.132812 129.445312 " fill-opacity="1" fill-rule="nonzero"/><path fill="#878787" d="M 156.585938 127.539062 C 156.71875 127.871094 156.828125 128.207031 156.914062 128.546875 C 156.996094 128.890625 157.058594 129.230469 157.09375 129.570312 C 157.128906 129.914062 157.136719 130.246094 157.121094 130.570312 C 157.105469 130.894531 157.0625 131.207031 156.996094 131.503906 C 156.929688 131.800781 156.839844 132.082031 156.726562 132.339844 C 156.609375 132.597656 156.472656 132.832031 156.316406 133.042969 C 156.15625 133.253906 155.980469 133.433594 155.785156 133.585938 C 155.589844 133.738281 155.378906 133.859375 155.152344 133.949219 C 154.925781 134.039062 154.6875 134.097656 154.441406 134.121094 C 154.195312 134.144531 153.941406 134.136719 153.679688 134.089844 C 153.421875 134.046875 153.160156 133.972656 152.898438 133.863281 C 152.640625 133.753906 152.382812 133.613281 152.128906 133.441406 C 151.875 133.273438 151.632812 133.074219 151.398438 132.851562 C 151.160156 132.625 150.941406 132.375 150.730469 132.105469 C 150.523438 131.832031 150.332031 131.542969 150.160156 131.238281 C 149.984375 130.929688 149.832031 130.609375 149.703125 130.28125 C 149.570312 129.949219 149.460938 129.613281 149.375 129.269531 C 149.289062 128.925781 149.230469 128.585938 149.195312 128.246094 C 149.160156 127.90625 149.148438 127.574219 149.167969 127.246094 C 149.183594 126.921875 149.222656 126.609375 149.289062 126.3125 C 149.355469 126.015625 149.449219 125.738281 149.5625 125.480469 C 149.675781 125.21875 149.8125 124.984375 149.972656 124.777344 C 150.128906 124.566406 150.308594 124.382812 150.503906 124.230469 C 150.699219 124.078125 150.910156 123.957031 151.136719 123.867188 C 151.363281 123.777344 151.597656 123.71875 151.847656 123.695312 C 152.09375 123.671875 152.347656 123.683594 152.605469 123.726562 C 152.867188 123.769531 153.125 123.847656 153.386719 123.957031 C 153.648438 124.066406 153.90625 124.203125 154.160156 124.375 C 154.410156 124.546875 154.65625 124.742188 154.890625 124.96875 C 155.125 125.195312 155.347656 125.441406 155.554688 125.714844 C 155.765625 125.984375 155.957031 126.273438 156.128906 126.582031 C 156.300781 126.886719 156.453125 127.207031 156.585938 127.539062 Z M 156.585938 127.539062 " fill-opacity="1" fill-rule="nonzero"/><path fill="#201e21" d="M 154.183594 134.367188 C 152.394531 134.367188 150.441406 132.78125 149.480469 130.367188 C 148.925781 128.976562 148.777344 127.519531 149.058594 126.261719 C 149.347656 124.96875 150.054688 124.042969 151.046875 123.644531 C 152.042969 123.25 153.195312 123.4375 154.292969 124.175781 C 155.359375 124.894531 156.253906 126.058594 156.808594 127.449219 C 157.359375 128.839844 157.511719 130.296875 157.230469 131.554688 C 156.941406 132.84375 156.234375 133.773438 155.238281 134.167969 C 154.902344 134.304688 154.546875 134.367188 154.183594 134.367188 Z M 152.113281 123.917969 C 151.804688 123.917969 151.507812 123.976562 151.222656 124.085938 C 150.378906 124.421875 149.773438 125.230469 149.519531 126.363281 C 149.261719 127.53125 149.402344 128.886719 149.921875 130.191406 C 150.980469 132.847656 153.285156 134.4375 155.0625 133.730469 C 155.90625 133.394531 156.511719 132.585938 156.765625 131.453125 C 157.027344 130.289062 156.882812 128.929688 156.367188 127.625 C 155.847656 126.324219 155.015625 125.238281 154.027344 124.570312 C 153.386719 124.140625 152.730469 123.917969 152.113281 123.917969 Z M 152.113281 123.917969 " fill-opacity="1" fill-rule="nonzero"/><path fill="#878787" d="M 161.597656 137.144531 C 161.726562 137.46875 161.804688 137.792969 161.835938 138.125 C 161.863281 138.460938 161.84375 138.773438 161.773438 139.0625 C 161.699219 139.355469 161.582031 139.605469 161.417969 139.8125 C 161.253906 140.023438 161.058594 140.171875 160.828125 140.261719 C 160.597656 140.355469 160.351562 140.382812 160.09375 140.34375 C 159.832031 140.304688 159.574219 140.203125 159.320312 140.039062 C 159.066406 139.878906 158.835938 139.664062 158.628906 139.402344 C 158.421875 139.140625 158.257812 138.847656 158.128906 138.527344 C 158 138.203125 157.921875 137.875 157.890625 137.542969 C 157.859375 137.210938 157.878906 136.898438 157.953125 136.605469 C 158.023438 136.3125 158.140625 136.0625 158.304688 135.855469 C 158.46875 135.648438 158.664062 135.5 158.894531 135.40625 C 159.125 135.316406 159.371094 135.289062 159.632812 135.328125 C 159.894531 135.367188 160.152344 135.46875 160.40625 135.628906 C 160.65625 135.792969 160.886719 136.003906 161.09375 136.269531 C 161.300781 136.53125 161.46875 136.824219 161.597656 137.144531 Z M 161.597656 137.144531 " fill-opacity="1" fill-rule="nonzero"/><path fill="#201e21" d="M 160.324219 140.597656 C 159.382812 140.597656 158.386719 139.816406 157.90625 138.613281 C 157.632812 137.917969 157.566406 137.1875 157.722656 136.550781 C 157.886719 135.882812 158.269531 135.398438 158.808594 135.1875 C 159.886719 134.757812 161.234375 135.597656 161.816406 137.054688 C 162.398438 138.515625 161.996094 140.054688 160.917969 140.484375 C 160.726562 140.558594 160.527344 140.597656 160.324219 140.597656 Z M 159.414062 135.546875 C 159.265625 135.546875 159.121094 135.570312 158.984375 135.625 C 158.59375 135.78125 158.308594 136.148438 158.183594 136.664062 C 158.050781 137.203125 158.109375 137.832031 158.347656 138.4375 C 158.832031 139.652344 159.90625 140.375 160.742188 140.042969 C 161.578125 139.710938 161.863281 138.449219 161.375 137.230469 C 160.972656 136.214844 160.15625 135.546875 159.414062 135.546875 Z M 159.414062 135.546875 " fill-opacity="1" fill-rule="nonzero"/><path fill="#878787" d="M 112.222656 143.796875 C 112.222656 143.796875 107.796875 124.71875 131.335938 115.925781 C 131.335938 115.925781 116.367188 116.007812 112.609375 124.738281 C 108.851562 133.46875 110.488281 136.867188 112.222656 143.796875 Z M 112.222656 143.796875 " fill-opacity="1" fill-rule="nonzero"/><path fill="#201e21" d="M 111.992188 143.855469 C 111.800781 143.101562 111.613281 142.386719 111.433594 141.707031 C 109.976562 136.160156 109.011719 132.5 112.390625 124.644531 C 116.167969 115.871094 131.179688 115.691406 131.332031 115.6875 L 132.667969 115.683594 L 131.417969 116.148438 C 124.761719 118.632812 116.199219 123.609375 113.183594 133.207031 C 111.382812 138.949219 112.441406 143.695312 112.453125 143.742188 Z M 129.894531 116.234375 C 126.074219 116.523438 115.796875 117.933594 112.828125 124.832031 C 109.683594 132.132812 110.328125 135.574219 111.667969 140.714844 C 111.617188 138.757812 111.796875 136.050781 112.722656 133.085938 C 115.585938 123.9375 123.367188 118.917969 129.894531 116.234375 Z M 129.894531 116.234375 " fill-opacity="1" fill-rule="nonzero"/><path fill="#e5e3e3" d="M 166.847656 121.132812 C 166.847656 121.132812 165.167969 128.589844 169.507812 136.808594 " fill-opacity="1" fill-rule="nonzero"/><path fill="#201e21" d="M 169.296875 136.917969 C 164.964844 128.71875 166.601562 121.15625 166.617188 121.078125 L 167.082031 121.183594 C 167.0625 121.257812 165.46875 128.660156 169.71875 136.695312 Z M 169.296875 136.917969 " fill-opacity="1" fill-rule="nonzero"/><path fill="#e5e3e3" d="M 119.21875 176.882812 C 119.21875 176.882812 114.519531 168.515625 119.019531 162.097656 " fill-opacity="1" fill-rule="nonzero"/><path fill="#201e21" d="M 119.011719 177 C 118.964844 176.917969 114.289062 168.425781 118.824219 161.964844 L 119.210938 162.234375 C 114.851562 168.453125 119.378906 176.6875 119.425781 176.769531 Z M 119.011719 177 " fill-opacity="1" fill-rule="nonzero"/><path fill="#e5e3e3" d="M 156.328125 195.078125 C 156.328125 195.078125 166.714844 198.804688 173.710938 193.152344 " fill-opacity="1" fill-rule="nonzero"/><path fill="#201e21" d="M 163.871094 196.503906 C 159.679688 196.503906 156.308594 195.324219 156.246094 195.300781 L 156.40625 194.855469 C 156.433594 194.863281 159.023438 195.78125 162.425781 196 C 165.546875 196.199219 170.011719 195.835938 173.5625 192.96875 L 173.863281 193.335938 C 170.808594 195.804688 167.097656 196.503906 163.871094 196.503906 Z M 163.871094 196.503906 " fill-opacity="1" fill-rule="nonzero"/><g clip-path="url(#f183ff6a71)"><g clip-path="url(#107d6936de)"><g transform="matrix(1, 0, 0, 1, 81, 109)"><g clip-path="url(#54ded2fc62)"><g clip-path="url(#a5c0844ed6)"><g clip-path="url(#677fa8bf02)"><path fill="#e5e3e3" d="M 0.445312 0.605469 L 3.105469 0.605469 L 3.105469 3.265625 L 0.445312 3.265625 Z M 0.445312 0.605469 " fill-opacity="1" fill-rule="nonzero"/></g></g></g></g></g></g><g clip-path="url(#1d2d985f98)"><g clip-path="url(#34ea794bff)"><g transform="matrix(1, 0, 0, 1, 48, 117)"><g clip-path="url(#1a7e8d282c)"><g clip-path="url(#b4005b0c81)"><g clip-path="url(#46f66f4ee5)"><path fill="#e5e3e3" d="M 0.226562 0.0546875 L 2.886719 0.0546875 L 2.886719 2.714844 L 0.226562 2.714844 Z M 0.226562 0.0546875 " fill-opacity="1" fill-rule="nonzero"/></g></g></g></g></g></g><g clip-path="url(#1c59393a19)"><g clip-path="url(#c6ad9e0163)"><g transform="matrix(1, 0, 0, 1, 68, 147)"><g clip-path="url(#ed08dc5b24)"><g clip-path="url(#676e55b4b2)"><g clip-path="url(#f7315b7d1a)"><path fill="#e5e3e3" d="M 0.753906 0.820312 L 3.414062 0.820312 L 3.414062 3.480469 L 0.753906 3.480469 Z M 0.753906 0.820312 " fill-opacity="1" fill-rule="nonzero"/></g></g></g></g></g></g><g clip-path="url(#661a0da606)"><g clip-path="url(#793e8bdbcb)"><g transform="matrix(1, 0, 0, 1, 58, 189)"><g clip-path="url(#442e718a13)"><g clip-path="url(#f59f7d2834)"><g clip-path="url(#57d10c7fdc)"><path fill="#e5e3e3" d="M 0.949219 0.207031 L 3.609375 0.207031 L 3.609375 2.867188 L 0.949219 2.867188 Z M 0.949219 0.207031 " fill-opacity="1" fill-rule="nonzero"/></g></g></g></g></g></g><g clip-path="url(#5c9bdb3af3)"><g clip-path="url(#b51d4c5cb5)"><g transform="matrix(1, 0, 0, 1, 113, 207)"><g clip-path="url(#dcdb2eff0c)"><g clip-path="url(#3429ff6e47)"><g clip-path="url(#b2a46b007c)"><path fill="#e5e3e3" d="M 0.183594 0.816406 L 2.84375 0.816406 L 2.84375 3.476562 L 0.183594 3.476562 Z M 0.183594 0.816406 " fill-opacity="1" fill-rule="nonzero"/></g></g></g></g></g></g><g clip-path="url(#2580530e8e)"><g clip-path="url(#d0c280ed2f)"><g transform="matrix(1, 0, 0, 1, 190, 95)"><g clip-path="url(#78f35e0df4)"><g clip-path="url(#784779fd43)"><g clip-path="url(#a524a39277)"><path fill="#e5e3e3" d="M 0.734375 0.539062 L 3.394531 0.539062 L 3.394531 3.199219 L 0.734375 3.199219 Z M 0.734375 0.539062 " fill-opacity="1" fill-rule="nonzero"/></g></g></g></g></g></g><g clip-path="url(#9f9c99a80f)"><g clip-path="url(#c69c020d06)"><g transform="matrix(1, 0, 0, 1, 243, 117)"><g clip-path="url(#fa7e27a09b)"><g clip-path="url(#716d5436f0)"><g clip-path="url(#4184c5c65c)"><path fill="#e5e3e3" d="M 0.792969 0.0546875 L 3.453125 0.0546875 L 3.453125 2.714844 L 0.792969 2.714844 Z M 0.792969 0.0546875 " fill-opacity="1" fill-rule="nonzero"/></g></g></g></g></g></g><g clip-path="url(#387bb450db)"><g clip-path="url(#ba09bed32c)"><g transform="matrix(1, 0, 0, 1, 183, 64)"><g clip-path="url(#661e64bdf5)"><g clip-path="url(#a3e915cd54)"><g clip-path="url(#2ad2d89f1d)"><path fill="#e5e3e3" d="M 0.730469 0.652344 L 3.390625 0.652344 L 3.390625 3.3125 L 0.730469 3.3125 Z M 0.730469 0.652344 " fill-opacity="1" fill-rule="nonzero"/></g></g></g></g></g></g><g clip-path="url(#45a5e0a6d3)"><g clip-path="url(#3687882b38)"><g transform="matrix(1, 0, 0, 1, 130, 106)"><g clip-path="url(#24c270fd8b)"><g clip-path="url(#ad4043d2c5)"><g clip-path="url(#620459b528)"><path fill="#e5e3e3" d="M 0.910156 0.945312 L 3.570312 0.945312 L 3.570312 3.605469 L 0.910156 3.605469 Z M 0.910156 0.945312 " fill-opacity="1" fill-rule="nonzero"/></g></g></g></g></g></g><g clip-path="url(#753c2d82d9)"><g clip-path="url(#a853802911)"><g transform="matrix(1, 0, 0, 1, 246, 186)"><g clip-path="url(#681363b409)"><g clip-path="url(#100d5b607e)"><g clip-path="url(#ed7db84bc8)"><path fill="#e5e3e3" d="M 0.453125 0.546875 L 3.113281 0.546875 L 3.113281 3.207031 L 0.453125 3.207031 Z M 0.453125 0.546875 " fill-opacity="1" fill-rule="nonzero"/></g></g></g></g></g></g><g clip-path="url(#be4596b835)"><g clip-path="url(#0c07f2415e)"><g transform="matrix(1, 0, 0, 1, 228, 155)"><g clip-path="url(#f091896acf)"><g clip-path="url(#eee0007a06)"><g clip-path="url(#344ea03d43)"><path fill="#e5e3e3" d="M 0.320312 0.539062 L 2.980469 0.539062 L 2.980469 3.199219 L 0.320312 3.199219 Z M 0.320312 0.539062 " fill-opacity="1" fill-rule="nonzero"/></g></g></g></g></g></g><g clip-path="url(#c3aca7f2f8)"><g clip-path="url(#a60f47d83f)"><g transform="matrix(1, 0, 0, 1, 144, 61)"><g clip-path="url(#e4f899f40d)"><g clip-path="url(#394461572c)"><g clip-path="url(#86d0caf9b8)"><path fill="#e5e3e3" d="M 0.230469 0.992188 L 2.890625 0.992188 L 2.890625 3.652344 L 0.230469 3.652344 Z M 0.230469 0.992188 " fill-opacity="1" fill-rule="nonzero"/></g></g></g></g></g></g><g clip-path="url(#fce16ce496)"><g clip-path="url(#326ea1578f)"><g transform="matrix(1, 0, 0, 1, 202, 210)"><g clip-path="url(#c0157aebb6)"><g clip-path="url(#c781252d20)"><g clip-path="url(#a3bd6ea168)"><path fill="#e5e3e3" d="M 0.285156 0.476562 L 2.945312 0.476562 L 2.945312 3.136719 L 0.285156 3.136719 Z M 0.285156 0.476562 " fill-opacity="1" fill-rule="nonzero"/></g></g></g></g></g></g><g clip-path="url(#9daea9b9a2)"><g clip-path="url(#836c71a67e)"><g transform="matrix(1, 0, 0, 1, 146, 240)"><g clip-path="url(#ca7abe8765)"><g clip-path="url(#4b6bc4c4a8)"><g clip-path="url(#67a93c24de)"><path fill="#e5e3e3" d="M 0.890625 0.667969 L 3.550781 0.667969 L 3.550781 3.328125 L 0.890625 3.328125 Z M 0.890625 0.667969 " fill-opacity="1" fill-rule="nonzero"/></g></g></g></g></g></g><g clip-path="url(#120920d147)"><g clip-path="url(#66156e986c)"><g transform="matrix(1, 0, 0, 1, 249, 56)"><g clip-path="url(#e47e9fa52a)"><g clip-path="url(#43f7dafa40)"><g clip-path="url(#4c39d6c6e9)"><path fill="#e5e3e3" d="M 0.113281 0.671875 L 2.773438 0.671875 L 2.773438 3.332031 L 0.113281 3.332031 Z M 0.113281 0.671875 " fill-opacity="1" fill-rule="nonzero"/></g></g></g></g></g></g><g clip-path="url(#e38183e4d2)"><g clip-path="url(#9785e1c66e)"><g transform="matrix(1, 0, 0, 1, 251, 225)"><g clip-path="url(#1599189d5b)"><g clip-path="url(#3f1264dc3d)"><g clip-path="url(#2278d42e35)"><path fill="#e5e3e3" d="M 0.773438 0.316406 L 3.433594 0.316406 L 3.433594 2.976562 L 0.773438 2.976562 Z M 0.773438 0.316406 " fill-opacity="1" fill-rule="nonzero"/></g></g></g></g></g></g></svg>