<svg width="34" height="37" viewBox="0 0 34 37" fill="none" xmlns="http://www.w3.org/2000/svg">
<path d="M22.5001 28.3811C26.1473 27.9441 29.6642 27.078 33 25.8342C30.234 22.7331 28.5505 18.6276 28.5505 14.125V12.7623C28.5508 12.7305 28.5509 12.6986 28.5509 12.6667C28.5509 6.22335 23.3795 1 17.0004 1C10.6212 1 5.44988 6.22335 5.44988 12.6667L5.4495 14.125C5.4495 18.6276 3.76595 22.7331 1 25.8342C4.33603 27.0781 7.85321 27.9442 11.5007 28.3812M22.5001 28.3811C20.6965 28.5972 18.8611 28.7083 17 28.7083C15.1391 28.7083 13.304 28.5972 11.5007 28.3812M22.5001 28.3811C22.679 28.9439 22.7756 29.5439 22.7756 30.1667C22.7756 33.3883 20.19 36 17.0004 36C13.8108 36 11.2251 33.3883 11.2251 30.1667C11.2251 29.5439 11.3217 28.9439 11.5007 28.3812" stroke="white" stroke-width="2" stroke-linecap="round" stroke-linejoin="round"/>
</svg>
