<svg width="19" height="15" viewBox="0 0 19 15" fill="none" xmlns="http://www.w3.org/2000/svg">
<path fill-rule="evenodd" clip-rule="evenodd" d="M2.58465 0C1.15719 0 0 1.11929 0 2.5V12.5C0 13.8807 1.15719 15 2.58465 15H16.3695C17.7969 15 18.9541 13.8807 18.9541 12.5V2.5C18.9541 1.11929 17.7969 0 16.3695 0H2.58465ZM4.85932 3.5265C4.49379 3.23187 3.95052 3.27964 3.64591 3.6332C3.3413 3.98676 3.39069 4.51224 3.75622 4.80687L7.82242 8.08439C8.78093 8.85699 10.1732 8.85699 11.1317 8.08439L15.1979 4.80687C15.5635 4.51224 15.6128 3.98676 15.3082 3.6332C15.0036 3.27964 14.4604 3.23187 14.0948 3.5265L10.0286 6.80402C9.70912 7.06156 9.24502 7.06156 8.92552 6.80403L4.85932 3.5265Z" fill="white"/>
</svg>
