<svg width="26" height="34" viewBox="0 0 26 34" fill="none" xmlns="http://www.w3.org/2000/svg">
<path d="M1 7.29691V25.9605C1 28.6386 1 29.9774 1.40824 30.7969C2.16489 32.3157 3.82315 33.1885 5.52734 32.9655C6.44681 32.8451 7.57927 32.1023 9.8442 30.6168L9.84963 30.6132C10.7474 30.0244 11.1963 29.73 11.6659 29.5667C12.5284 29.2667 13.4695 29.2667 14.332 29.5667C14.8026 29.7303 15.2533 30.0259 16.1546 30.6171C18.4196 32.1026 19.5533 32.8448 20.4728 32.9652C22.177 33.1882 23.8351 32.3157 24.5918 30.7969C25 29.9775 25 28.6382 25 25.9605V7.29044C25 5.09076 25 3.98928 24.5645 3.14829C24.181 2.40781 23.5674 1.80622 22.8148 1.42892C21.9591 1 20.8406 1 18.6004 1H7.40039C5.16018 1 4.03924 1 3.18359 1.42892C2.43095 1.80622 1.81947 2.40781 1.43597 3.14829C1 3.9901 1 5.09292 1 7.29691Z" stroke="white" stroke-width="2" stroke-linecap="round" stroke-linejoin="round"/>
</svg>
