<svg width="29" height="32" viewBox="0 0 29 32" fill="none" xmlns="http://www.w3.org/2000/svg">
<path d="M4.33333 6V25.6667C4.33333 27.5335 4.33333 28.4663 4.69665 29.1793C5.01622 29.8065 5.52579 30.3175 6.153 30.637C6.86534 31 7.79832 31 9.66152 31H19.0052C20.8683 31 21.8 31 22.5123 30.637C23.1395 30.3175 23.6508 29.8065 23.9704 29.1793C24.3333 28.467 24.3333 27.535 24.3333 25.6718V6M4.33333 6H7.66667M4.33333 6H1M7.66667 6H21M7.66667 6C7.66667 4.44686 7.66667 3.67068 7.9204 3.05811C8.25871 2.24135 8.9072 1.59205 9.72396 1.25373C10.3365 1 11.1135 1 12.6667 1H16C17.5531 1 18.3297 1 18.9423 1.25373C19.759 1.59205 20.4078 2.24135 20.7461 3.05811C20.9998 3.67067 21 4.44686 21 6M21 6H24.3333M24.3333 6H27.6667" stroke="white" stroke-width="2" stroke-linecap="round" stroke-linejoin="round"/>
</svg>
