<svg width="16" height="20" viewBox="0 0 16 20" fill="none" xmlns="http://www.w3.org/2000/svg">
<path d="M5.84863 13.5498C7.28816 13.4338 8.7343 13.4338 10.1738 13.5498C10.9578 13.5955 11.7382 13.6939 12.5098 13.8438C14.1795 14.1818 15.2692 14.7334 15.7363 15.623C16.0872 16.3174 16.0872 17.1436 15.7363 17.8379C15.2692 18.7276 14.2224 19.3147 12.4922 19.6172C11.7213 19.7726 10.9406 19.874 10.1562 19.9199C9.42969 19.9999 8.70299 20 7.96777 20H6.64453C6.36774 19.9644 6.09934 19.9463 5.83984 19.9463C5.05544 19.9059 4.27467 19.8084 3.50391 19.6533C1.83449 19.3331 0.744641 18.7635 0.277344 17.874C0.09704 17.5295 0.00146051 17.1442 0 16.7529C-0.00375863 16.3592 0.0888457 15.9707 0.268555 15.623C0.727069 14.7334 1.81692 14.1551 3.50391 13.8438C4.2781 13.6918 5.06161 13.5933 5.84863 13.5498ZM8.00293 0C10.903 0.000226313 13.2539 2.418 13.2539 5.40039C13.2539 8.38277 10.903 10.8006 8.00293 10.8008C5.10272 10.8008 2.75099 8.38291 2.75098 5.40039C2.75098 2.41786 5.10271 0 8.00293 0Z" fill="white"/>
</svg>
