<svg width="52" height="75" viewBox="0 0 52 75" fill="none" xmlns="http://www.w3.org/2000/svg">
<path d="M4.28443 18.9098C4.08547 19.8494 4.68613 20.7998 5.61817 21.0325C6.77872 21.3222 7.99294 18.9628 7.99294 18.9628C7.99294 18.9628 10.1009 18.9732 10.6904 17.8455C11.3638 16.5575 10.4349 13.9308 9.06357 14.3788C8.43877 14.583 7.89534 15.5904 7.89534 15.5904C7.89534 15.5904 6.11527 13.9961 5.28447 14.6522C4.39383 15.3554 5.36289 17.4634 5.36289 17.4634C5.36289 17.4634 4.45878 18.0863 4.28443 18.9098Z" fill="#FFF4C8" stroke="#E3D59C" stroke-width="2"/>
<path d="M11.0723 16.4908C10.4283 17.7586 10.9082 19.3753 12.1331 20.0985C13.6582 20.999 16.2834 18.1137 16.2834 18.1137C16.2834 18.1137 19.2531 19.0077 20.5208 17.6324C21.9687 16.0617 21.6741 11.8984 19.5662 11.9705C18.6059 12.0034 17.4497 13.225 17.4497 13.225C17.4497 13.225 15.5551 10.1908 14.1294 10.7874C12.601 11.4269 13.153 14.8614 13.153 14.8614C13.153 14.8614 11.6367 15.3798 11.0723 16.4908Z" fill="#FFF4C8" stroke="#E3D59C" stroke-width="2"/>
<path d="M5.50435 22.9262C4.88111 24.1366 5.33816 25.6763 6.51455 26.3622C7.97935 27.2162 10.5134 24.4583 10.5134 24.4583C10.5134 24.4583 13.368 25.3019 14.5916 23.9874C15.9892 22.486 15.7176 18.5183 13.6894 18.5931C12.7654 18.6271 11.6495 19.7949 11.6495 19.7949C11.6495 19.7949 9.83532 16.9081 8.46194 17.4808C6.98964 18.0949 7.51084 21.3671 7.51084 21.3671C7.51084 21.3671 6.05051 21.8656 5.50435 22.9262Z" fill="#FFF4C8" stroke="#E3D59C" stroke-width="2"/>
<path d="M14.7463 20.209C14.1404 21.4143 14.5974 22.954 15.7565 23.6449C17.1998 24.5052 19.6746 21.7647 19.6746 21.7647C19.6746 21.7647 22.4831 22.622 23.6783 21.3158C25.0432 19.824 24.7559 15.8609 22.7639 15.9251C21.8564 15.9543 20.7664 17.1144 20.7664 17.1144C20.7664 17.1144 18.9693 14.2226 17.6232 14.7873C16.1802 15.3927 16.7092 18.6627 16.7092 18.6627C16.7092 18.6627 15.2773 19.1528 14.7463 20.209Z" fill="#FFF4C8" stroke="#E3D59C" stroke-width="2"/>
<path d="M25.2166 15.9862C24.5311 17.4973 25.1134 19.4606 26.5046 20.367C28.2369 21.4957 31.2118 18.3918 31.2118 18.3918C31.2118 18.3918 34.4438 19.2501 35.8243 17.6269C37.4011 15.773 36.9551 10.7434 34.5978 10.7715C33.5238 10.7844 32.2637 12.2254 32.2637 12.2254C32.2637 12.2254 30.0583 8.51302 28.4792 9.19277C26.7863 9.92146 27.5 14.0791 27.5 14.0791C27.5 14.0791 25.8173 14.662 25.2166 15.9862Z" fill="#FFF4C8" stroke="#E3D59C" stroke-width="2"/>
<path d="M21.6889 12.1659C20.9618 13.5351 21.4761 15.2673 22.8254 16.0313C24.5055 16.9825 27.4451 13.8538 27.4451 13.8538C27.4451 13.8538 30.7258 14.7826 32.1451 13.2912C33.7662 11.5878 33.4845 7.11706 31.1483 7.21719C30.084 7.26282 28.7899 8.58795 28.7899 8.58795C28.7899 8.58795 26.7233 5.34777 25.1373 6.00419C23.437 6.70787 24.0117 10.3926 24.0117 10.3926C24.0117 10.3926 22.3261 10.9659 21.6889 12.1659Z" fill="#FFF4C8" stroke="#E3D59C" stroke-width="2"/>
<path d="M16.2292 10.3108C15.7825 11.1611 16.1025 12.2389 16.9363 12.7159C17.9746 13.3099 19.7839 11.369 19.7839 11.369C19.7839 11.369 21.8098 11.9514 22.6835 11.0262C23.6813 9.9695 23.5007 7.18927 22.0592 7.24803C21.4024 7.27479 20.6058 8.09679 20.6058 8.09679C20.6058 8.09679 19.3256 6.079 18.3479 6.48476C17.2997 6.91974 17.6599 9.21168 17.6599 9.21168C17.6599 9.21168 16.6206 9.56565 16.2292 10.3108Z" fill="#FFF4C8" stroke="#E3D59C" stroke-width="2"/>
<path d="M10.001 14.0041C10.0722 14.7214 10.6813 15.2874 11.3562 15.2699C12.1966 15.2481 12.4967 13.305 12.4967 13.305C12.4967 13.305 13.911 12.8933 14.0606 11.9628C14.2314 10.9 13.0379 9.19024 12.2167 9.78605C11.8426 10.0575 11.6977 10.8921 11.6977 10.8921C11.6977 10.8921 10.1585 10.0962 9.74472 10.7346C9.30112 11.4189 10.4088 12.7466 10.4088 12.7466C10.4088 12.7466 9.93869 13.3756 10.001 14.0041Z" fill="#FFF4C8" stroke="#E3D59C" stroke-width="2"/>
<path d="M13.4977 9.85668C13.5895 10.463 14.8779 10.8571 15.4529 10.8758C16.1688 10.8991 16.3405 9.2809 16.3405 9.2809C16.3405 9.2809 17.529 9.00498 17.6162 8.23032C17.7159 7.34556 16.6236 5.84945 15.949 6.30951C15.6417 6.51912 15.4529 6.98424 15.4529 6.98424C15.4529 6.98424 14.2069 6.46824 13.8816 6.98424C13.5329 7.5374 13.9469 8.74098 13.9469 8.74098C13.9469 8.74098 13.4173 9.32532 13.4977 9.85668Z" fill="#FFF4C8" stroke="#E3D59C" stroke-width="2"/>
<path d="M29.5297 49.516C27.0292 50.2023 23.8961 53.0303 23.8961 53.0303L24.1327 53.8351L31.0374 62.0785C31.0374 62.0785 32.063 61.1605 32.8719 60.8834C33.662 60.6127 35.0021 60.6943 35.0021 60.6943L36.0031 50.345L35.7665 49.5402C35.7665 49.5402 31.8785 48.8712 29.5297 49.516Z" fill="#EDE1B0" stroke="#EDE1B0" stroke-width="2"/>
<path d="M23.9315 53.8942L23.6653 52.9888C23.6653 52.9888 19.8776 51.9079 17.6001 52.8048C16.0572 53.4124 14.1915 55.3371 14.1915 55.3371L14.4577 56.2424L28.2561 63.7706L30.7356 62.1672L23.9315 53.8942Z" fill="#E3D59C" stroke="#E3D59C" stroke-width="2"/>
<path d="M36.41 50.2419L36.1438 49.3366C36.1438 49.3366 38.7438 46.3776 41.1443 45.8991C42.7706 45.5749 45.381 46.1835 45.381 46.1835L45.6472 47.0889L39.5407 60.89L35.1663 60.8811L36.41 50.2419Z" fill="#FFF3C4" stroke="#FFF3C4" stroke-width="2"/>
<path d="M39.9498 46.4225C37.9441 47.1508 35.9084 48.4679 35.9084 48.4679L33.0934 39.1127L42.842 36.2465L45.8588 46.5074C45.8588 46.5074 42.226 45.596 39.9498 46.4225Z" fill="#E50000" stroke="#E50000" stroke-width="2"/>
<path d="M17.9234 52.5208C16.0557 53.2036 14.3616 55.3251 14.3616 55.3251L11.1776 45.5125L20.5367 42.7608L23.6223 52.6407C23.6223 52.6407 20.0431 51.746 17.9234 52.5208Z" fill="#A00000" stroke="#A00000" stroke-width="2"/>
<path d="M6.65587 24.8741C4.52368 25.3352 5.80344 28.2942 5.80344 28.2942L9.10999 40.6558L19.3709 37.639L15.7625 25.3661C15.7625 25.3661 9.07562 24.3508 6.65587 24.8741Z" fill="#A00000" stroke="#A00000" stroke-width="2"/>
<path d="M32.2991 19C30.1873 19.4524 27.5028 21.8051 27.5028 21.8051L31.2916 34.1341L41.1501 31.2356L36.2991 17.5C36.2991 17.5 34.6958 18.4865 32.2991 19Z" fill="#E50000" stroke="#E50000" stroke-width="2"/>
<path d="M28.5748 49.3713C26.1803 50.2062 25.2138 51.8014 25.2138 51.8014L21.0383 42.7784L32.5324 39.399L34.1219 48.8414C34.1219 48.8414 31.2923 48.4238 28.5748 49.3713Z" fill="#C10000" stroke="#C10000" stroke-width="2"/>
<path d="M20.7991 20.5C18.2937 21.0946 16.0489 25.6949 16.0489 25.6949L19.5742 37.6854L31.2434 34.2545L27.3993 21.1797C27.3993 21.1797 23.6424 19.8253 20.7991 20.5Z" fill="#C10000" stroke="#C10000" stroke-width="2"/>
<path d="M33.57 61.7711C31.2966 62.4181 28.3507 64.8358 28.3507 64.8358L35.6404 68.8129L39.4163 61.5823C39.4163 61.5823 35.7671 61.1458 33.57 61.7711Z" fill="#2B0A01" stroke="#2B0A01" stroke-width="2"/>
<path d="M35.7291 69.1147L13.8422 56.7513L10.5888 45.6856L43.484 36.0141L46.7374 47.0797L41.2333 58.0972L35.7291 69.1147Z" stroke="white" stroke-width="2"/>
<path d="M4.95436 26.5222C6.06358 30.2943 9.22799 41.0582 9.22799 41.0582L42.0226 31.4162L37.6157 16.4273C36.7997 13.6518 31.1891 18.2832 28.7948 20.4217C28.1435 21.0035 27.1924 21.1297 26.374 20.8246C24.9784 20.3044 22.7096 19.7169 20.621 20.331C18.858 20.8493 17.3223 22.5861 16.4393 23.7793C15.9309 24.4662 15.0823 24.8538 14.2376 24.7243C11.1374 24.2493 4.05938 23.4787 4.95436 26.5222Z" stroke="white" stroke-width="2"/>
</svg>
